<?xml version="1.0" standalone="no"?>
<!DOCTYPE svg PUBLIC "-//W3C//DTD SVG 20010904//EN"
 "http://www.w3.org/TR/2001/REC-SVG-20010904/DTD/svg10.dtd">
<svg version="1.0" xmlns="http://www.w3.org/2000/svg"
 width="64.000000pt" height="64.000000pt" viewBox="0 0 64.000000 64.000000"
 preserveAspectRatio="xMidYMid meet">

<g transform="translate(0.000000,64.000000) scale(0.100000,-0.100000)"
fill="#000000" stroke="none">
<path d="M430 401 l0 -200 -31 11 c-38 13 -109 -12 -139 -49 -27 -35 -26 -87
2 -107 44 -31 127 -11 166 39 21 26 22 38 22 227 l0 199 28 -14 c15 -8 45 -18
67 -22 55 -10 65 -21 65 -72 0 -27 4 -42 10 -38 6 3 10 24 10 46 0 50 -24 75
-81 84 -59 9 -86 28 -94 65 -16 75 -25 17 -25 -169z m-19 -220 c20 -16 22 -23
14 -47 -12 -34 -68 -74 -102 -74 -87 0 -82 93 7 129 37 15 55 13 81 -8z"/>
<path d="M10 460 c0 -6 52 -10 135 -10 83 0 135 4 135 10 0 6 -52 10 -135 10
-83 0 -135 -4 -135 -10z"/>
<path d="M15 370 c-4 -6 42 -10 130 -10 88 0 134 4 130 10 -4 6 -58 10 -130
10 -72 0 -126 -4 -130 -10z"/>
<path d="M10 270 c0 -6 52 -10 135 -10 83 0 135 4 135 10 0 6 -52 10 -135 10
-83 0 -135 -4 -135 -10z"/>
</g>
</svg>
