<svg xmlns="http://www.w3.org/2000/svg" version="1.0" width="100.000000" height="100.000000" preserveAspectRatio="xMidYMid meet"><rect id="backgroundrect" width="100%" height="100%" x="0" y="0" fill="none" stroke="none"/>


<g class="currentLayer" style=""><title>Layer 1</title><g transform="translate(0,100) scale(0.10000000149011612,-0.10000000149011612) " fill="#d1a954" stroke="#d1a954" id="svg_1" class="selected" fill-opacity="1" stroke-opacity="1" stroke-width="10">
<path d="M235 838 c-3 -7 -4 -164 -3 -348 l3 -335 95 0 95 0 0 345 0 345 -93 3 c-68 2 -94 -1 -97 -10z m175 -338 l0 -330 -80 0 -80 0 0 330 0 330 80 0 80 0 0 -330z" id="svg_2" fill="#d1a954" stroke="#d1a954" stroke-width="10"/>
<path d="M372 730 c0 -19 2 -27 5 -17 2 9 2 25 0 35 -3 9 -5 1 -5 -18z" id="svg_3" fill="#d1a954" stroke="#d1a954" stroke-width="10"/>
<path d="M374 440 c0 -135 2 -190 3 -122 2 67 2 177 0 245 -1 67 -3 12 -3 -123z" id="svg_4" fill="#d1a954" stroke="#d1a954" stroke-width="10"/>
<path d="M575 838 c-3 -7 -4 -164 -3 -348 l3 -335 95 0 95 0 0 345 0 345 -93 3 c-68 2 -94 -1 -97 -10z m175 -338 l0 -330 -80 0 -80 0 0 330 0 330 80 0 80 0 0 -330z" id="svg_5" fill="#d1a954" stroke="#d1a954" stroke-width="10"/>
<path d="M714 585 c0 -121 2 -169 3 -107 2 62 2 161 0 220 -1 59 -3 8 -3 -113z" id="svg_6" fill="#d1a954" stroke="#d1a954" stroke-width="10"/>
<path d="M712 270 c0 -19 2 -27 5 -17 2 9 2 25 0 35 -3 9 -5 1 -5 -18z" id="svg_7" fill="#d1a954" stroke="#d1a954" stroke-width="10"/>
</g></g></svg>