<svg xmlns="http://www.w3.org/2000/svg" xmlns:xlink="http://www.w3.org/1999/xlink" version="1.1" width="55.87323943827509" height="53.6478873318066" style="shape-rendering:geometricPrecision; text-rendering:geometricPrecision; image-rendering:optimizeQuality; fill-rule:evenodd; clip-rule:evenodd"><rect id="backgroundrect" width="100%" height="100%" x="0" y="0" fill="none" stroke="none" style="" class=""/>


<g class="currentLayer" style=""><title>Layer 1</title><g id="svg_1" class=""><path style="opacity:0.978" fill="#d1a953" d="M19.318279411416498,9.950704574584961 C29.696382676412473,9.950704574584961 40.074485941408454,9.950704574584961 50.452589206404426,9.950704574584961 C50.59667187340012,22.802765253501303 50.45250272221055,35.65140934561774 50.02016823702959,48.49681206051379 C49.587747267654755,48.93483600921753 49.15532629827993,49.372859957921264 48.7229053289051,49.810883906625 C37.768211943344724,50.39494503982657 26.813605041978214,50.39494503982657 15.858911656417837,49.810883906625 C14.267766809086817,47.334909734182254 13.691211282199964,44.56081646225175 14.129227778918507,41.488428881254 C15.858911656417837,41.488428881254 17.588595533917164,41.488428881254 19.318279411416498,41.488428881254 C19.318279411416498,30.97585411236432 19.318279411416498,20.463279343474643 19.318279411416498,9.950704574584961 zM21.047963288915824,11.702800369399908 C30.272972796976877,11.702800369399908 39.497895820844036,11.702800369399908 48.7229053289051,11.702800369399908 C48.866987995900786,22.803290882239743 48.72281884471122,33.89983917954126 48.29048435953027,44.9926204708839 C47.46957639126909,47.35768697951485 45.88406166495932,48.0876976924245 43.53385369640711,47.182740214402585 C42.222493864680985,45.52087735302061 41.64590374411659,43.62274437370784 41.80416981890778,41.488428881254 C34.88543430891046,41.488428881254 27.966698798913146,41.488428881254 21.047963288915824,41.488428881254 C21.047963288915824,31.559915245565886 21.047963288915824,21.631314005088026 21.047963288915824,11.702800369399908 zM15.858911656417837,43.24052467606895 C23.93074092335009,43.24052467606895 32.0026566744762,43.24052467606895 40.074485941408454,43.24052467606895 C40.074485941408454,44.9926204708839 40.074485941408454,46.74471626569885 40.074485941408454,48.49681206051379 C33.14978302203376,48.64258643064239 26.231047512036437,48.49654924614456 19.318279411416498,48.05878811181006 C17.21826156732517,47.166708537880034 16.065141865132084,45.56056232277316 15.858911656417837,43.24052467606895 z" id="svg_2"/></g><path fill="#d1a954" stroke-dashoffset="" fill-rule="nonzero" marker-start="" marker-mid="" marker-end="" id="svg_6" d="M33.25340909259125,38.075090542716644 C30.46681451245886,37.817501338735795 28.96222838326181,35.409601020948976 31.74660715425879,34.527547129759405 C34.649254213674965,33.657830543481154 36.37557783104229,36.753989235285225 33.20497304265739,37.056617406497466 C31.468843945607567,37.434839210537426 35.45905766076899,38.06822031579235 36.20276289222835,37.432243466297805 C38.52657909376495,36.77816794658425 38.16760682975724,35.07579953040802 37.60850855608446,33.87687217320126 C37.41447916701603,32.958375431157165 37.17183338770373,31.975044428352973 35.178986375852034,32.49705566761299 C30.371078975885062,32.72200336745586 26.56465998815982,29.88561420724008 26.94699540818667,27.232182336134333 C27.076799883979607,24.729406062430975 30.60217318995926,23.015213311783526 33.21262562260172,21.277216619049316 C32.355607966059246,19.00348205332858 32.09683920456115,16.3766953789659 34.58125193996116,14.3953092519453 C36.869685094656994,12.78466011305004 38.03123880576445,15.732016729802726 38.418337166942635,16.73213349116045 C39.27818155286633,19.06990481526117 37.56372404776747,21.526530821271155 34.71089704525524,23.174461773769053 C34.98329897438768,23.956140926067746 35.251319612776456,24.738342804187102 35.528923450928964,25.519404115701914 C38.5436415231072,25.180932236605788 41.42132892553325,26.662287623193215 41.585760137295864,28.397416233973857 C42.05158193323227,29.964263713102035 40.32339060544458,31.443953368418683 37.96285627963521,32.11733966441464 C37.92404117510957,33.4628107260192 39.2025099233726,34.85846671822399 38.74313843869844,36.24785975595853 C38.30197992653378,37.68436803113723 35.531595003778136,38.38879107113091 33.25341049058028,38.075090542716644 L33.25340909259125,38.075090542716644 zM36.40067309275291,31.945123862507998 C37.25479132459716,31.012782609219705 35.70554091394442,29.366201151065063 35.62048040485208,28.16942566827174 C35.65393422985693,26.082505018868407 31.84721747093701,28.573682957755494 32.97925268998098,29.59852066699485 C33.31482265434282,30.20494196447578 36.22750725924035,31.317023670056713 33.5519757433652,30.631158616127678 C30.758649856617673,29.65897232293286 30.886590815957334,27.15758700394121 33.43888839416737,26.10142720581598 C35.58017504635788,25.825610885769137 34.272358360428846,24.163985817480878 33.86888677741605,23.61820152817326 C31.23893103040727,25.011986113162244 28.25798971819482,26.767040089215588 28.71155396554856,29.02289141604325 C29.053207968622054,31.13729053429961 33.01697456880601,32.41995401550402 36.40067309275291,31.94512467545632 L36.40067309275291,31.945123862507998 zM38.17021966715601,31.541536442505453 C40.67857572311214,30.605127195425965 40.59625526821992,28.147588248363334 37.85193161607337,27.38537514549177 C34.92372376533668,26.48561686405701 36.92935956077767,28.842832287977963 36.98301289759334,29.74007205527076 C37.389388099262774,30.083546818817887 37.15919279073017,32.08493472826056 38.17021966715601,31.541536442505453 zM35.07880803710165,20.276702325923925 C36.621764711016006,19.19127719836382 38.385530609839584,17.624258187123438 37.30192025683926,16.189182327025012 C34.96837127094644,15.293427816458127 33.67160007901527,17.71522548713506 33.614209923382745,18.77567765280987 C33.59298009528052,19.463298675281717 33.41872103605756,21.83341071261292 35.07880943508928,20.276702325923925 L35.07880943508928,20.276702325923925 L35.07880803710165,20.276702325923925 z" style="color: rgb(209, 169, 84);" class="" fill-opacity="1"/></g></svg>