<svg xmlns="http://www.w3.org/2000/svg" version="1.0" width="100" height="100" preserveAspectRatio="xMidYMid meet" style=""><rect id="backgroundrect" width="100%" height="100%" x="0" y="0" fill="none" stroke="none"/>


<g class="currentLayer" style=""><title>Layer 1</title><g transform="translate(0,100) scale(0.10000000149011612,-0.10000000149011612) " fill="#d1a954" stroke="#d1a954" id="svg_1" class="selected" fill-opacity="1" stroke-opacity="1" stroke-width="10">
<path d="M202 848 c-9 -9 -12 -100 -12 -348 0 -342 2 -360 37 -360 24 0 613 334 618 351 3 9 3 22 0 30 -6 15 -596 339 -618 339 -7 0 -18 -5 -25 -12z m341 -175 c184 -101 287 -162 285 -170 -4 -19 -594 -347 -607 -338 -12 7 -16 657 -4 669 10 10 13 8 326 -161z" id="svg_2" fill="#d1a954" stroke="#d1a954" stroke-opacity="1" stroke-width="10"/>
<path d="M240 499 l0 -301 83 45 c250 137 450 253 450 261 -1 11 -304 179 -310 172 -2 -2 62 -39 143 -83 80 -44 146 -84 146 -89 1 -8 -478 -283 -494 -284 -5 0 -8 126 -8 280 0 154 2 280 5 280 3 0 24 -9 45 -20 22 -11 40 -18 40 -16 0 4 -89 56 -96 56 -2 0 -4 -135 -4 -301z" id="svg_3" fill="#d1a954" stroke="#d1a954" stroke-opacity="1" stroke-width="10"/>
<path d="M370 720 c8 -5 20 -10 25 -10 6 0 3 5 -5 10 -8 5 -19 10 -25 10 -5 0 -3 -5 5 -10z" id="svg_4" fill="#d1a954" stroke="#d1a954" stroke-opacity="1" stroke-width="10"/>
<path d="M417 699 c7 -7 15 -10 18 -7 3 3 -2 9 -12 12 -14 6 -15 5 -6 -5z" id="svg_5" fill="#d1a954" stroke="#d1a954" stroke-opacity="1" stroke-width="10"/>
</g></g></svg>