<svg xmlns="http://www.w3.org/2000/svg" version="1.0" width="100.000000" height="100.000000" preserveAspectRatio="xMidYMid meet"><rect id="backgroundrect" width="100%" height="100%" x="0" y="0" fill="none" stroke="none"/>


<g class="currentLayer" style=""><title>Layer 1</title><g transform="translate(0,100) scale(0.10000000149011612,-0.10000000149011612) " fill="#d1a954" stroke="#d1a954" id="svg_1" class="selected" fill-opacity="1" stroke-width="10" stroke-opacity="1">
<path d="M325 657 c-207 -115 -240 -137 -240 -157 0 -20 33 -42 244 -158 191 -106 247 -133 260 -125 19 12 29 113 12 113 -6 0 -11 -20 -11 -44 0 -25 -4 -47 -9 -51 -11 -6 -481 252 -481 265 0 13 470 271 481 265 5 -4 9 -26 9 -51 0 -24 5 -44 10 -44 6 0 10 22 10 48 0 46 -12 72 -34 72 -6 0 -119 -60 -251 -133z" id="svg_2" fill="#d1a954" stroke-width="10" stroke="#d1a954"/>
<path d="M635 657 c-207 -115 -240 -137 -240 -157 0 -20 33 -42 244 -158 191 -106 247 -133 260 -125 14 9 16 44 19 278 2 266 -1 295 -32 295 -6 0 -119 -60 -251 -133z m265 -157 c0 -167 -4 -270 -10 -270 -19 0 -481 263 -478 272 4 11 457 266 476 267 9 1 12 -59 12 -269z" id="svg_3" fill="#d1a954" stroke-width="10" stroke="#d1a954"/>
<path d="M670 619 c-107 -60 -196 -113 -198 -118 -2 -5 32 -28 75 -51 43 -24 98 -54 123 -67 25 -14 36 -17 25 -8 -11 9 -62 39 -112 66 -51 28 -93 54 -93 59 0 4 55 38 123 75 67 37 150 83 185 102 l62 35 0 -211 c0 -211 0 -212 -21 -201 -33 18 -32 6 1 -14 l30 -17 0 230 c0 127 -1 231 -2 230 -2 0 -91 -50 -198 -110z" id="svg_4" fill="#d1a954" stroke-width="10" stroke="#d1a954"/>
<path d="M760 330 c8 -5 20 -10 25 -10 6 0 3 5 -5 10 -8 5 -19 10 -25 10 -5 0 -3 -5 5 -10z" id="svg_5" fill="#d1a954" stroke-width="10" stroke="#d1a954"/>
<path d="M350 614 c-102 -57 -186 -108 -188 -113 -2 -5 32 -28 75 -51 43 -24 98 -54 123 -67 25 -14 36 -17 25 -8 -11 9 -62 39 -113 67 -51 27 -92 54 -90 59 2 6 84 54 183 109 l180 99 6 -32 6 -32 2 38 c1 24 -3 37 -11 36 -7 -1 -96 -48 -198 -105z" id="svg_6" fill="#d1a954" stroke-width="10" stroke="#d1a954"/>
<path d="M552 322 c-2 -30 -4 -32 -23 -22 -11 7 -23 10 -25 7 -2 -2 7 -10 21 -17 31 -17 37 -11 32 32 l-4 33 -1 -33z" id="svg_7" fill="#d1a954" stroke-width="10" stroke="#d1a954"/>
<path d="M450 330 c8 -5 20 -10 25 -10 6 0 3 5 -5 10 -8 5 -19 10 -25 10 -5 0 -3 -5 5 -10z" id="svg_8" fill="#d1a954" stroke-width="10" stroke="#d1a954"/>
</g></g></svg>