<svg xmlns="http://www.w3.org/2000/svg" version="1.0" width="100.000000" height="100.000000" preserveAspectRatio="xMidYMid meet" style=""><rect id="backgroundrect" width="100%" height="100%" x="0" y="0" fill="none" stroke="none"/>


<g class="currentLayer" style=""><title>Layer 1</title><g transform="translate(0,100) scale(0.10000000149011612,-0.10000000149011612) " fill="#d1a954" stroke="#d1a954" id="svg_1" class="selected" fill-opacity="1" stroke-width="10" stroke-opacity="1">
<path d="M91 776 c-8 -9 -11 -92 -9 -281 3 -236 5 -269 19 -278 14 -8 67 17 260 125 210 116 244 138 244 158 0 20 -33 42 -240 157 -132 73 -245 133 -251 133 -6 0 -17 -6 -23 -14z m261 -135 c128 -71 233 -135 233 -141 0 -11 -456 -270 -476 -270 -5 0 -9 106 -9 270 0 164 4 270 9 270 6 0 115 -58 243 -129z" id="svg_2" fill="#d1a954" stroke-width="10" stroke="#d1a954"/>
<path d="M130 499 l0 -231 34 20 c19 11 109 61 200 112 91 50 166 95 166 100 0 6 -191 118 -235 137 -36 16 46 -37 123 -78 50 -28 92 -54 92 -59 0 -6 -154 -94 -362 -207 -5 -2 -8 91 -8 207 0 210 0 211 21 200 11 -7 23 -9 26 -7 3 3 -9 13 -26 22 l-31 16 0 -232z" id="svg_3" fill="#d1a954" stroke-width="10" stroke="#d1a954"/>
<path d="M220 670 c8 -5 20 -10 25 -10 6 0 3 5 -5 10 -8 5 -19 10 -25 10 -5 0 -3 -5 5 -10z" id="svg_4" fill="#d1a954" stroke-width="10" stroke="#d1a954"/>
<path d="M402 778 c-14 -14 -16 -108 -2 -108 6 0 10 23 10 50 0 28 4 50 9 50 21 0 476 -259 476 -270 0 -15 -463 -272 -476 -265 -5 4 -9 26 -9 51 0 24 -5 44 -11 44 -6 0 -9 -20 -7 -51 5 -89 6 -89 279 63 210 116 244 138 244 158 0 20 -33 42 -240 157 -132 73 -245 133 -250 133 -6 0 -16 -5 -23 -12z" id="svg_5" fill="#d1a954" stroke-width="10" stroke="#d1a954"/>
<path d="M441 683 l2 -38 6 32 c5 26 9 30 21 23 24 -15 37 -11 16 5 -33 25 -46 19 -45 -22z" id="svg_6" fill="#d1a954" stroke-width="10" stroke="#d1a954"/>
<path d="M530 670 c8 -5 20 -10 25 -10 6 0 3 5 -5 10 -8 5 -19 10 -25 10 -5 0 -3 -5 5 -10z" id="svg_7" fill="#d1a954" stroke-width="10" stroke="#d1a954"/>
<path d="M615 625 c11 -9 62 -39 113 -67 51 -27 92 -54 90 -59 -2 -5 -84 -54 -183 -109 l-180 -100 -6 33 -6 32 -2 -37 c0 -21 3 -38 8 -38 16 0 391 211 391 220 0 5 -51 36 -112 71 -131 72 -140 76 -113 54z" id="svg_8" fill="#d1a954" stroke-width="10" stroke="#d1a954"/>
</g></g></svg>