<svg xmlns="http://www.w3.org/2000/svg" version="1.1" width="64" height="64" style=""><rect id="backgroundrect" width="100%" height="100%" x="0" y="0" fill="none" stroke="none"/>
<title>loop2</title>


<g class="currentLayer" style=""><title>Layer 1</title><path fill="#d1a954" d="M55.605 10.395c-5.851-6.388-14.26-10.395-23.605-10.395-17.673 0-32 14.327-32 32h6c0-14.359 11.641-26 26-26 7.689 0 14.596 3.339 19.356 8.644l-9.356 9.356h22v-22l-8.395 8.395z" id="svg_1" class="selected" stroke="#d1a954" stroke-opacity="1" fill-opacity="1"/><path fill="#d1a954" d="M58 32c0 14.359-11.641 26-26 26-7.689 0-14.596-3.339-19.356-8.644l9.356-9.356h-22v22l8.395-8.395c5.851 6.389 14.26 10.395 23.605 10.395 17.673 0 32-14.327 32-32h-6z" id="svg_2" class="" stroke="#d1a954" stroke-opacity="1" fill-opacity="1"/></g></svg>