<svg xmlns="http://www.w3.org/2000/svg" version="1.0" width="100.000000" height="100.000000" preserveAspectRatio="xMidYMid meet"><rect id="backgroundrect" width="100%" height="100%" x="0" y="0" fill="none" stroke="none"/>


<g class="currentLayer" style=""><title>Layer 1</title><g transform="translate(0,100) scale(0.10000000149011612,-0.10000000149011612) " fill="#d1a954" stroke="#d1a954" id="svg_1" class="selected" fill-opacity="1" stroke-width="10" stroke-opacity="1">
<path d="M492 827 l-72 -72 73 -73 73 -72 27 28 27 28 -23 22 -22 23 90 -3 90 -3 0 -205 0 -205 -57 -3 -58 -3 0 -44 0 -45 60 0 c35 0 74 7 90 15 55 28 60 52 60 285 0 169 -3 217 -15 240 -24 47 -62 60 -166 60 l-92 0 21 23 22 23 -28 27 -28 27 -72 -73z m95 27 c3 -8 -4 -25 -16 -38 -11 -12 -21 -25 -21 -28 0 -4 52 -8 115 -10 169 -5 160 10 160 -278 0 -223 -1 -230 -22 -252 -17 -16 -38 -23 -83 -26 -59 -4 -60 -4 -60 22 0 24 3 26 44 26 75 0 76 4 76 226 0 116 -4 203 -10 215 -10 17 -22 19 -115 19 -58 0 -105 -4 -105 -8 0 -5 9 -17 20 -27 24 -22 26 -43 4 -52 -10 -4 -34 12 -70 48 -30 29 -54 58 -54 63 0 15 102 116 117 116 8 0 16 -7 20 -16z" id="svg_2" fill="#d1a954" stroke-width="10" stroke="#d1a954"/>
<path d="M802 625 c0 -16 2 -22 5 -12 2 9 2 23 0 30 -3 6 -5 -1 -5 -18z" id="svg_3" fill="#d1a954" stroke-width="10" stroke="#d1a954"/>
<path d="M800 427 c0 -157 -5 -168 -76 -178 l-49 -6 43 -2 c33 -1 48 4 67 24 24 23 25 29 25 160 0 74 -2 135 -5 135 -3 0 -5 -60 -5 -133z" id="svg_4" fill="#d1a954" stroke-width="10" stroke="#d1a954"/>
<path d="M208 784 c-53 -28 -58 -53 -58 -284 0 -169 3 -217 15 -240 24 -47 62 -60 167 -60 l92 0 -22 -22 -22 -22 27 -28 27 -28 73 72 73 73 -72 72 -72 73 -28 -27 -28 -27 22 -23 22 -24 -89 3 -90 3 0 205 0 205 58 3 57 3 0 44 0 45 -62 0 c-36 -1 -75 -7 -90 -16z m132 -29 c0 -23 -3 -25 -48 -25 -26 0 -53 -5 -60 -12 -9 -9 -12 -71 -12 -220 0 -195 1 -208 19 -218 23 -12 211 -14 211 -2 0 5 -9 17 -20 27 -24 22 -26 43 -4 52 16 6 124 -91 124 -112 0 -21 -108 -118 -124 -112 -22 9 -20 30 4 52 11 10 20 22 20 26 0 4 -52 9 -115 11 -167 5 -159 -9 -163 266 -2 234 1 255 48 279 14 7 46 13 73 13 44 0 47 -2 47 -25z" id="svg_5" fill="#d1a954" stroke-width="10" stroke="#d1a954"/>
<path d="M215 735 c-24 -23 -25 -28 -23 -162 l2 -138 5 142 c4 94 10 146 19 155 6 6 33 15 60 19 l47 6 -43 2 c-33 1 -48 -4 -67 -24z" id="svg_6" fill="#d1a954" stroke-width="10" stroke="#d1a954"/>
<path d="M192 375 c0 -16 2 -22 5 -12 2 9 2 23 0 30 -3 6 -5 -1 -5 -18z" id="svg_7" fill="#d1a954" stroke-width="10" stroke="#d1a954"/>
</g></g></svg>