<?xml version="1.0" encoding="UTF-8"?>
<!DOCTYPE svg PUBLIC "-//W3C//DTD SVG 1.1//EN" "http://www.w3.org/Graphics/SVG/1.1/DTD/svg11.dtd">
<svg xmlns="http://www.w3.org/2000/svg" version="1.1" width="50px" height="50px" style="shape-rendering:geometricPrecision; text-rendering:geometricPrecision; image-rendering:optimizeQuality; fill-rule:evenodd; clip-rule:evenodd" xmlns:xlink="http://www.w3.org/1999/xlink">
<g><path style="opacity:0.978" fill="#d1a953" d="M 9.5,1.5 C 21.5,1.5 33.5,1.5 45.5,1.5C 45.6666,16.1705 45.4999,30.8371 45,45.5C 44.5,46 44,46.5 43.5,47C 30.8333,47.6667 18.1667,47.6667 5.5,47C 3.66019,44.1737 2.99353,41.0071 3.5,37.5C 5.5,37.5 7.5,37.5 9.5,37.5C 9.5,25.5 9.5,13.5 9.5,1.5 Z M 11.5,3.5 C 22.1667,3.5 32.8333,3.5 43.5,3.5C 43.6666,16.1711 43.4999,28.8377 43,41.5C 42.0508,44.1997 40.2175,45.033 37.5,44C 35.9837,42.103 35.317,39.9363 35.5,37.5C 27.5,37.5 19.5,37.5 11.5,37.5C 11.5,26.1667 11.5,14.8333 11.5,3.5 Z M 5.5,39.5 C 14.8333,39.5 24.1667,39.5 33.5,39.5C 33.5,41.5 33.5,43.5 33.5,45.5C 25.4931,45.6664 17.4931,45.4997 9.5,45C 7.07179,43.9817 5.73846,42.1483 5.5,39.5 Z"/></g>
<g><path style="opacity:0.957" fill="#d0a953" d="M 30.5,9.5 C 32.5,9.5 34.5,9.5 36.5,9.5C 36.6663,16.175 36.4996,22.8417 36,29.5C 33.6194,30.435 31.1194,30.7683 28.5,30.5C 27.4832,26.2194 29.1499,23.886 33.5,23.5C 34.48,20.9135 34.8134,18.2469 34.5,15.5C 31.3751,15.8647 28.3751,16.698 25.5,18C 24.6948,22.7488 24.1948,27.5821 24,32.5C 21.6194,33.435 19.1194,33.7683 16.5,33.5C 15.4832,29.2194 17.1499,26.886 21.5,26.5C 22.4941,21.544 22.8275,16.544 22.5,11.5C 25.3725,11.1977 28.0392,10.531 30.5,9.5 Z"/></g>
</svg>
