<svg xmlns="http://www.w3.org/2000/svg" version="1.0" width="100.000000" height="100.000000" preserveAspectRatio="xMidYMid meet" style=""><rect id="backgroundrect" width="100%" height="100%" x="0" y="0" fill="none" stroke="none"/>


<g class="currentLayer" style=""><title>Layer 1</title><g transform="translate(0,100) scale(0.10000000149011612,-0.10000000149011612) " fill="#d1a954" stroke="#d1a954" id="svg_1" class="selected" fill-opacity="1" stroke-opacity="1" stroke-width="10">
<path d="M683.8965511322021,852 l-27,-28 l22,-22 l22,-22 l-49,0 c-28,-1 -61,-7 -75,-14 c-17,-10 -61,-81 -140,-227 l-115,-214 l-83,-3 l-82,-3 l0,-44 l0,-45 l94,0 c78,0 97,3 119,20 c14,11 76,114 137,230 l112,210 l41,0 l40,0 l-21,-23 l-22,-23 l28,-27 l28,-27 l72,73 l72,72 l-73,73 l-73,72 l-27,-28 zm90,-54 c29,-29 53,-57 53,-63 c0,-21 -108,-118 -124,-112 c-22,9 -20,30 4,52 c32,29 24,36 -41,33 l-61,-3 l-109,-205 c-61,-113 -121,-215 -135,-228 c-22,-19 -36,-22 -105,-22 c-78,0 -79,0 -79,25 c0,24 2,25 74,25 c47,0 77,5 84,13 c5,6 58,102 116,212 c59,110 116,208 128,218 c15,12 38,17 84,17 c35,0 64,3 64,7 c0,4 -10,17 -21,29 c-22,23 -20,54 3,54 c7,0 36,-23 65,-52 z" id="svg_2" fill="#d1a954" fill-opacity="1" stroke="#d1a954" stroke-opacity="1" stroke-width="10"/>
<path d="M156.89655113220215,725 l0,-44 l83,-3 l82,-3 l31,-58 c34,-65 54,-89 54,-66 c0,7 -17,43 -38,79 l-38,65 l-77,3 c-74,3 -77,4 -77,27 c0,24 2,25 78,25 c92,0 109,-10 149,-80 c15,-28 31,-50 36,-50 c11,0 9,7 -18,59 c-40,79 -62,91 -171,91 l-94,0 l0,-45 z" id="svg_3" fill="#d1a954" fill-opacity="1" stroke="#d1a954" stroke-opacity="1" stroke-width="10"/>
<path d="M261.89655113220215,723 c38,-2 75,-9 83,-15 c7,-7 27,-38 43,-70 c16,-32 32,-58 34,-58 c9,0 -47,104 -68,128 c-18,19 -29,22 -91,20 l-71,-2 l70,-3 z" id="svg_4" fill="#d1a954" fill-opacity="1" stroke="#d1a954" stroke-opacity="1" stroke-width="10"/>
<path d="M526.8965511322021,449 c0,-6 18,-45 41,-85 l40,-74 l60,0 c63,0 71,6 39,35 c-24,22 -26,43 -4,52 c16,6 124,-91 124,-112 c0,-21 -108,-118 -124,-112 c-22,9 -20,30 4,52 c32,29 24,35 -41,35 c-33,0 -69,4 -79,10 c-10,5 -33,36 -51,67 c-39,69 -38,68 -45,60 c-3,-3 9,-33 27,-67 c37,-71 67,-90 136,-90 l47,0 l-22,-22 l-22,-22 l27,-28 l27,-28 l73,72 l73,73 l-72,72 l-72,73 l-28,-27 l-28,-27 l22,-23 l21,-23 l-41,0 c-42,0 -42,0 -77,69 c-33,67 -55,95 -55,70 z" id="svg_5" fill="#d1a954" fill-opacity="1" stroke="#d1a954" stroke-opacity="1" stroke-width="10"/>
<path d="M506.89655113220215,417 c0,-8 60,-111 60,-104 c0,11 -49,107 -55,107 c-3,0 -5,-2 -5,-3 z" id="svg_6" fill="#d1a954" fill-opacity="1" stroke="#d1a954" stroke-opacity="1" stroke-width="10"/>
<path d="M624.8965511322021,263 c6,-2 18,-2 25,0 c6,3 1,5 -13,5 c-14,0 -19,-2 -12,-5 z" id="svg_7" fill="#d1a954" fill-opacity="1" stroke="#d1a954" stroke-opacity="1" stroke-width="10"/>
</g></g></svg>