<svg xmlns="http://www.w3.org/2000/svg" width="55.52317810058594" height="63.52980041503906" style=""><rect id="backgroundrect" width="100%" height="100%" x="0" y="0" fill="none" stroke="none" style="" class=""/><title/><g class="currentLayer" style=""><title>Layer 1</title><g id="text"><text font-family="MyriadPro-Regular, Myriad Pro" font-size="9" y="67.39013671875" x="13.41112995147705" id="svg_1"/></g><g data-name="Layer 1" id="Layer_1" class="" fill="#d1a954" fill-opacity="1" stroke="#d1a954" stroke-opacity="1" transform="rotate(-90.10194396972656 28.068044662475582,31.38427352905273) " stroke-width="1"><path d="M57.933282411079404,55.86435416001081 l-29,-50 a1.041,1.041 0 0 0 -1.73047,0 l-29,50 A1.0002,1.0002 0 0 0 -0.9319475889205934,57.366354160010815 H57.06805241107941 a1.0002,1.0002 0 0 0 0.86523,-1.502 zM27.068052411079407,21.917014160010815 a17.36807,17.36807 0 0 0 -8.45673,2.74707 L27.068052411079407,10.083644160010815 zm0,2 V54.815694160010814 a15.48042,15.48042 0 0 1 0,-30.89868 zm2,0 a15.48042,15.48042 0 0 1 0,30.89868 zm0,-2 V10.083644160010815 l8.45673,14.58044 A17.36807,17.36807 0 0 0 29.068052411079407,21.917014160010815 zM10.614382411079406,38.451864160010814 C10.598512411079406,38.75667416001082 10.568052411079407,39.057634160010814 10.568052411079407,39.366354160010815 A17.5164,17.5164 0 0 0 21.008782411079405,55.366354160010815 H0.8038924110794065 zM35.127322411079405,55.366354160010815 A17.5164,17.5164 0 0 0 45.56805241107941,39.366354160010815 c0,-0.3087200000000002 -0.030460000000000032,-0.6096800000000004 -0.04633000000000008,-0.91449 L55.332212411079404,55.366354160010815 z" id="svg_2" fill="#d1a954" fill-opacity="1" stroke="#d1a954" stroke-opacity="1" stroke-width="1"/></g></g></svg>