<svg xmlns="http://www.w3.org/2000/svg" version="1.0" width="100.000000" height="100.000000" preserveAspectRatio="xMidYMid meet"><rect id="backgroundrect" width="100%" height="100%" x="0" y="0" fill="none" stroke="none"/>


<g class="currentLayer" style=""><title>Layer 1</title><g transform="translate(0,100) scale(0.10000000149011612,-0.10000000149011612) " fill="#d1a954" stroke="#d1a954" id="svg_1" class="selected" fill-opacity="1" stroke-width="10" stroke-opacity="1">
<path d="M221 816 c-47 -26 -50 -44 -51 -314 0 -275 4 -297 55 -320 40 -19 517 -17 554 2 47 25 51 47 51 316 0 269 -4 291 -51 316 -39 20 -522 20 -558 0z m564 -31 l25 -24 0 -261 0 -261 -25 -24 -24 -25 -261 0 -261 0 -24 25 -25 24 0 261 0 261 25 24 24 25 261 0 261 0 24 -25z" id="svg_2" fill="#d1a954" fill-opacity="1" stroke-width="10" stroke="#d1a954" stroke-opacity="1"/>
<path d="M249 751 l-29 -29 0 -222 0 -222 29 -29 29 -29 222 0 222 0 29 29 29 29 -2 119 -2 118 -5 -123 c-8 -172 8 -162 -273 -162 l-219 0 -24 25 -25 24 0 219 c0 201 2 222 19 243 19 23 24 24 223 29 l203 6 -198 2 -199 2 -29 -29z" id="svg_3" fill="#d1a954" fill-opacity="1" stroke-width="10" stroke="#d1a954" stroke-opacity="1"/>
<path d="M771 614 c0 -11 3 -14 6 -6 3 7 2 16 -1 19 -3 4 -6 -2 -5 -13z" id="svg_4" fill="#d1a954" fill-opacity="1" stroke-width="10" stroke="#d1a954" stroke-opacity="1"/>
<path d="M772 555 c0 -16 2 -22 5 -12 2 9 2 23 0 30 -3 6 -5 -1 -5 -18z" id="svg_5" fill="#d1a954" fill-opacity="1" stroke-width="10" stroke="#d1a954" stroke-opacity="1"/>
</g></g></svg>