<svg xmlns="http://www.w3.org/2000/svg" version="1.0" width="100.000000" height="100.000000" preserveAspectRatio="xMidYMid meet"><rect id="backgroundrect" width="100%" height="100%" x="0" y="0" fill="none" stroke="none"/>


<g class="currentLayer" style=""><title>Layer 1</title><g transform="translate(0,100) scale(0.10000000149011612,-0.10000000149011612) " fill="#d1a954" stroke="#d1a954" id="svg_1" class="selected" fill-opacity="1" stroke-opacity="1" stroke-width="10">
<path d="M405 770 l-110 -100 -77 0 c-108 0 -108 0 -108 -170 0 -170 0 -170 108 -170 l77 0 110 -100 c61 -55 117 -99 125 -97 13 2 15 51 15 367 0 316 -2 365 -15 367 -8 2 -64 -42 -125 -97z m123 -446 l-3 -175 -107 97 -108 97 -2 106 -2 106 -3 -103 -4 -103 -82 3 -82 3 0 145 0 145 86 5 87 5 108 98 109 98 3 -175 c1 -97 1 -255 0 -352z" id="svg_2" fill="#d1a954" stroke="#d1a954" stroke-width="10"/>
<path d="M302 580 c0 -14 2 -19 5 -12 2 6 2 18 0 25 -3 6 -5 1 -5 -13z" id="svg_3" fill="#d1a954" stroke="#d1a954" stroke-width="10"/>
<path d="M580 727 c0 -2 24 -17 54 -31 166 -81 167 -306 1 -391 -34 -18 -52 -31 -42 -33 28 -6 86 29 126 74 95 108 77 257 -43 349 -29 22 -96 45 -96 32z" id="svg_4" fill="#d1a954" stroke="#d1a954" stroke-width="10"/>
<path d="M580 625 c0 -3 17 -20 38 -39 34 -31 37 -39 37 -86 0 -47 -3 -55 -38 -87 -42 -38 -43 -56 -2 -29 58 38 81 117 50 176 -20 38 -85 88 -85 65z" id="svg_5" fill="#d1a954" stroke="#d1a954" stroke-width="10"/>
</g></g></svg>